PathFileType	4	(X/Y/Z)	C:\Users\86182\Documents\cortex\Trimmed_M1_L13.trc
DataRate	CameraRate	NumFrames	NumMarkers	Units	OrigDataRate	OrigDataStartFrame	OrigNumFrames
100.00	100.00	       71	2	mm	100.00	181	       901
Frame#	Time	gripper			box			
		X1	Y1	Z1	X2	Y2	Z2	

181	1.800	200.44357	195.52112	204.46965	202.74876	194.77803	67.38588	
182	1.810	200.51759	195.54117	204.79892	202.79147	194.79950	67.45649	
183	1.820	200.62215	195.48991	205.36447	202.70583	194.77756	67.77303	
184	1.830	200.51196	195.54883	205.94250	202.81725	194.94211	68.17493	
185	1.840	200.52893	195.55913	206.17282	202.50319	194.77562	68.57378	
186	1.850	200.52631	195.53630	206.54608	202.77635	194.70044	68.77427	
187	1.860	200.68456	195.58463	207.03937	202.56310	194.74414	69.11003	
188	1.870	200.81294	195.53418	207.42665	202.44786	194.77739	69.38552	
189	1.880	200.58452	195.55809	207.88609	202.67734	194.86038	69.73750	
190	1.890	200.64285	195.57999	208.56555	202.71486	194.94038	70.27693	
191	1.900	200.65125	195.53560	208.84755	202.34142	194.82361	70.70499	
192	1.910	200.68645	195.57205	209.18950	202.35938	194.87106	70.91494	
193	1.920	200.56908	195.53531	209.58145	202.22591	194.83168	71.17747	
194	1.930	200.56013	195.51451	210.19623	202.37862	194.86870	71.43956	
195	1.940	200.65045	195.59883	210.53775	202.47089	194.93633	72.05376	
196	1.950	200.66931	195.59560	210.82141	207.88785	195.31783	69.34470	
197	1.960	200.60880	195.62196	211.16127	202.17822	194.84892	72.90806	
198	1.970	200.48085	195.56267	211.72423	202.25067	194.85683	73.13759	
199	1.980	200.40939	195.54564	212.18265	202.27158	194.85298	73.45760	
200	1.990	200.42503	195.53517	212.51880	202.11961	194.93454	73.97982	
201	2.000	200.48999	195.54565	212.94351	207.52879	195.22269	71.26847	
202	2.010	200.49561	195.51175	213.48581	202.18967	194.78439	74.73254	
203	2.020	200.52058	195.53026	213.79916	202.21915	194.85075	75.33511	
204	2.030	200.55360	195.58168	214.14540	202.44055	194.80171	75.68999	
205	2.040	200.77644	195.65051	214.80273	202.46529	194.87570	75.86791	
206	2.050	200.72806	195.52409	215.14644	202.25414	195.03766	76.18651	
207	2.060	200.64970	195.53136	215.49321	202.22246	194.88245	76.75892	
208	2.070	200.52322	195.47823	216.03979	202.28406	194.74603	77.27930	
209	2.080	200.74777	195.58615	216.49158	202.44412	194.92690	77.74067	
210	2.090	200.78091	195.67235	216.87650	202.53291	194.93144	77.85895	
211	2.100	200.70059	195.60356	217.20154	202.30872	195.07841	78.35705	
212	2.110	200.67624	195.57202	217.78133	202.14624	194.82564	78.98167	
213	2.120	200.71812	195.64185	218.12843	202.18530	194.95177	79.36053	
214	2.130	200.68883	195.61063	218.42368	202.32219	195.00293	79.59727	
215	2.140	200.31154	195.56754	218.91588	202.43431	194.95795	80.01189	
216	2.150	200.31262	195.57271	219.48274	202.41959	194.87863	80.57390	
217	2.160	200.22676	195.39586	219.90814	202.02501	194.88106	81.09298	
218	2.170	200.39641	195.39825	220.18475	202.03699	194.88646	81.29327	
219	2.180	200.24377	195.17899	220.54306	202.06381	194.91412	81.50385	
220	2.190	200.14304	195.33440	221.28717	202.13600	194.80496	82.00952	
221	2.200	200.13553	195.45284	221.53447	208.02374	195.35356	79.45956	
222	2.210	200.09908	195.30119	221.90518	202.16748	194.84918	83.06591	
223	2.220	200.37704	195.28220	222.35443	202.07994	194.93549	83.42278	
224	2.230	200.34673	195.34903	222.89735	202.30659	194.89960	83.88293	
225	2.240	200.13876	195.48247	223.36064	202.20454	194.98196	84.18050	
226	2.250	200.00294	195.32797	223.78958	208.12640	195.42538	81.46750	
227	2.260	200.28712	195.44588	224.23549	202.13263	194.90012	85.19748	
228	2.270	200.40677	195.41962	224.58641	202.29936	194.99704	85.83107	
229	2.280	200.12387	195.31386	225.17636	202.40242	195.04672	85.93813	
230	2.290	200.04095	195.43567	225.64828	202.24435	195.07458	86.32571	
231	2.300	200.31245	195.51553	226.00209	207.80669	195.39877	83.60545	
232	2.310	200.37776	195.47510	226.15154	201.90703	194.87236	87.17747	
233	2.320	200.11143	195.40001	226.60895	202.22084	194.99530	87.68269	
234	2.330	200.26247	195.36142	227.19890	202.33058	195.02222	87.97637	
235	2.340	200.19095	195.55774	227.63727	202.22842	194.98895	88.39225	
236	2.350	200.23741	195.51503	228.03264	202.17883	195.00392	88.64998	
237	2.360	200.16225	195.47380	228.34244	201.92050	194.91953	89.36215	
238	2.370	200.14008	195.48964	228.86327	202.09970	195.02275	89.70987	
239	2.380	200.29362	195.38811	229.27478	202.31874	195.06227	90.14593	
240	2.390	200.23747	195.53513	229.83704	202.16046	194.93756	90.56553	
241	2.400	200.35344	195.53970	230.20496	208.43279	195.37090	87.65009	
242	2.410	200.05685	195.51360	230.69124	201.99490	195.10178	91.52068	
243	2.420	200.03644	195.47652	231.00694	202.07637	194.96646	91.81709	
244	2.430	200.13849	195.54156	231.38220	202.08420	195.04837	92.39565	
245	2.440	200.35191	195.55522	232.06824	202.12367	195.02388	92.82713	
246	2.450	200.23863	195.56944	232.38893	208.33847	195.30730	89.86749	
247	2.460	200.06554	195.51613	232.77298	201.89177	194.91302	93.69817	
248	2.470	200.05067	195.59898	233.18796	201.90036	194.90440	93.94725	
249	2.480	199.95840	195.54498	233.60963	202.01089	194.91667	94.34698	
250	2.490	200.08455	195.58333	234.02663	201.97168	194.98375	94.89469	
251	2.500	200.09138	195.57939	234.45961	207.45607	195.18604	92.37567	
